<svg width="285" height="153" viewBox="0 0 285 153" fill="none" xmlns="http://www.w3.org/2000/svg">
<path d="M1.7664 141.4V140.709L4.608 139.173V120.126L1.7664 118.552V117.899H10.9824V118.59L8.1408 120.126V139.173L10.9824 140.747V141.4H1.7664ZM14.4378 141.4V140.709L17.2794 139.173V120.126L14.4378 118.552V117.899H20.0058L32.8698 134.68V120.126L30.0282 118.552V117.899H37.7082V118.59L34.8666 120.126V141.4H33.4074L19.2762 122.891V139.173L22.1178 140.747V141.4H14.4378ZM50.3289 141.4V140.709L53.1705 139.173V120.126L50.3289 118.552V117.899H59.5833C60.8121 117.899 61.9001 118.014 62.8473 118.245C63.7945 118.45 64.5881 118.782 65.2281 119.243C65.8937 119.678 66.3929 120.229 66.7257 120.894C67.0841 121.534 67.2633 122.29 67.2633 123.16C67.2633 124.158 66.9433 125.157 66.3033 126.155C65.6889 127.154 64.5753 127.998 62.9625 128.69C64.8569 129.048 66.2649 129.714 67.1865 130.686C68.1081 131.659 68.5689 132.824 68.5689 134.181C68.5689 135.742 68.1337 137.061 67.2633 138.136C66.4185 139.186 65.2665 139.992 63.8073 140.555C62.3737 141.118 60.7609 141.4 58.9689 141.4H50.3289ZM60.0057 139.941C61.7721 139.941 63.0265 139.608 63.7689 138.942C64.5369 138.251 64.9209 137.048 64.9209 135.333C64.9209 134.181 64.6905 133.246 64.2297 132.53C63.7689 131.787 63.1417 131.224 62.3481 130.84C61.5545 130.43 60.6713 130.174 59.6985 130.072C58.7257 129.97 57.7273 129.944 56.7033 129.995V139.557C57.2409 139.659 57.7785 139.749 58.3161 139.826C58.8537 139.902 59.4169 139.941 60.0057 139.941ZM59.2377 128.536C60.3129 128.536 61.1705 128.395 61.8105 128.114C62.4505 127.832 62.9113 127.397 63.1929 126.808C63.4745 126.219 63.6153 125.451 63.6153 124.504C63.6153 123.147 63.3465 122.098 62.8089 121.355C62.2713 120.587 61.4777 120.062 60.4281 119.781C59.4041 119.473 58.1625 119.346 56.7033 119.397V128.229C57.0873 128.357 57.5097 128.446 57.9705 128.498C58.4569 128.523 58.8793 128.536 59.2377 128.536ZM83.0451 141.861C81.1251 141.861 79.3971 141.426 77.8611 140.555C76.3251 139.659 75.0963 138.341 74.1747 136.6C73.2787 134.834 72.8307 132.67 72.8307 130.11C72.8307 128.088 73.1507 126.296 73.7907 124.734C74.4307 123.173 75.3011 121.854 76.4019 120.779C77.5027 119.678 78.7699 118.846 80.2035 118.283C81.6371 117.72 83.1347 117.438 84.6963 117.438C86.7187 117.438 88.4723 117.912 89.9571 118.859C91.4675 119.781 92.6323 121.112 93.4515 122.853C94.2963 124.594 94.7187 126.706 94.7187 129.189C94.7187 131.211 94.3987 133.003 93.7587 134.565C93.1187 136.126 92.2483 137.458 91.1475 138.558C90.0467 139.634 88.7923 140.453 87.3843 141.016C86.0019 141.579 84.5555 141.861 83.0451 141.861ZM84.5043 139.71C86.0659 139.71 87.3459 139.429 88.3443 138.866C89.3427 138.277 90.0851 137.291 90.5715 135.909C91.0579 134.526 91.3011 132.632 91.3011 130.226C91.3011 127.794 90.9171 125.797 90.1491 124.235C89.3811 122.648 88.3699 121.47 87.1155 120.702C85.8867 119.934 84.5427 119.55 83.0835 119.55C81.5219 119.55 80.2419 119.845 79.2435 120.434C78.2451 120.997 77.5027 121.969 77.0163 123.352C76.5299 124.734 76.2867 126.629 76.2867 129.035C76.2867 131.442 76.6579 133.438 77.4003 135.026C78.1683 136.613 79.1795 137.79 80.4339 138.558C81.7139 139.326 83.0707 139.71 84.5043 139.71ZM98.3289 141.4V140.709L101.171 139.173V120.126L98.3289 118.552V117.899H107.852C110.31 117.899 112.217 118.398 113.574 119.397C114.931 120.37 115.609 121.726 115.609 123.467C115.609 124.952 115.148 126.219 114.227 127.269C113.305 128.318 112.179 129.138 110.847 129.726L117.183 139.403L119.449 140.747V141.4H114.111L107.737 130.533C107.455 130.558 107.11 130.584 106.7 130.61C106.291 130.635 105.625 130.648 104.703 130.648V139.173L108.313 140.747V141.4H98.3289ZM104.703 128.997C105.471 129.15 106.291 129.227 107.161 129.227C108.851 129.227 110.067 128.907 110.809 128.267C111.577 127.602 111.961 126.45 111.961 124.811C111.961 123.019 111.462 121.662 110.463 120.741C109.465 119.819 108.07 119.358 106.278 119.358H104.703V128.997ZM121.241 141.4V140.709L124.083 139.173V120.126L121.241 118.552V117.899H132.032C133.645 117.899 135.129 118.091 136.486 118.475C137.843 118.834 139.021 119.435 140.019 120.28C141.043 121.099 141.824 122.213 142.361 123.621C142.925 125.029 143.206 126.757 143.206 128.805C143.206 131.595 142.669 133.925 141.593 135.794C140.518 137.662 139.046 139.07 137.177 140.018C135.309 140.939 133.171 141.4 130.765 141.4H121.241ZM127.616 139.096C128.23 139.25 128.934 139.378 129.728 139.48C130.547 139.582 131.392 139.634 132.262 139.634C133.849 139.634 135.193 139.352 136.294 138.789C137.395 138.2 138.227 137.214 138.79 135.832C139.379 134.45 139.673 132.568 139.673 130.187C139.673 128.19 139.417 126.501 138.905 125.118C138.419 123.736 137.741 122.622 136.87 121.778C136 120.933 135.027 120.318 133.952 119.934C132.877 119.55 131.776 119.358 130.649 119.358H127.616V139.096ZM146.704 141.4V140.709L149.546 139.173V120.126L146.704 118.552V117.899H162.986L162.102 123.006H161.104L158.992 119.358H153.078V128.536H155.459L160.374 128.19L159.99 130.302L155.459 129.842H153.078V139.941H159.491L162.717 135.525H163.715L162.678 141.4H146.704ZM167.329 141.4V140.709L170.171 139.173V120.126L167.329 118.552V117.899H176.852C179.31 117.899 181.217 118.398 182.574 119.397C183.931 120.37 184.609 121.726 184.609 123.467C184.609 124.952 184.148 126.219 183.227 127.269C182.305 128.318 181.179 129.138 179.847 129.726L186.183 139.403L188.449 140.747V141.4H183.111L176.737 130.533C176.455 130.558 176.11 130.584 175.7 130.61C175.291 130.635 174.625 130.648 173.703 130.648V139.173L177.313 140.747V141.4H167.329ZM173.703 128.997C174.471 129.15 175.291 129.227 176.161 129.227C177.851 129.227 179.067 128.907 179.809 128.267C180.577 127.602 180.961 126.45 180.961 124.811C180.961 123.019 180.462 121.662 179.463 120.741C178.465 119.819 177.07 119.358 175.278 119.358H173.703V128.997ZM190.241 141.4V140.709L193.083 139.173V120.126L190.241 118.552V117.899H200.225V118.59L196.616 120.126V139.941H203.605L207.099 135.141H208.097L206.984 141.4H190.241ZM208.838 141.4V140.709L211.449 139.173L220.204 118.168L222.278 117.208L230.841 139.173L233.106 140.709V141.4H224.006V140.709L227.231 139.173L224.658 132.491H216.249L213.522 139.211L216.249 140.709V141.4H208.838ZM216.825 131.032H224.121L220.55 121.739L216.825 131.032ZM234.638 141.4V140.709L237.479 139.173V120.126L234.638 118.552V117.899H240.206L253.07 134.68V120.126L250.228 118.552V117.899H257.908V118.59L255.067 120.126V141.4H253.607L239.476 122.891V139.173L242.318 140.747V141.4H234.638ZM261.154 141.4V140.709L263.996 139.173V120.126L261.154 118.552V117.899H271.944C273.557 117.899 275.042 118.091 276.399 118.475C277.756 118.834 278.933 119.435 279.932 120.28C280.956 121.099 281.736 122.213 282.274 123.621C282.837 125.029 283.119 126.757 283.119 128.805C283.119 131.595 282.581 133.925 281.506 135.794C280.431 137.662 278.959 139.07 277.09 140.018C275.221 140.939 273.084 141.4 270.677 141.4H261.154ZM267.528 139.096C268.143 139.25 268.847 139.378 269.64 139.48C270.46 139.582 271.304 139.634 272.175 139.634C273.762 139.634 275.106 139.352 276.207 138.789C277.308 138.2 278.14 137.214 278.703 135.832C279.292 134.45 279.586 132.568 279.586 130.187C279.586 128.19 279.33 126.501 278.818 125.118C278.332 123.736 277.653 122.622 276.783 121.778C275.912 120.933 274.94 120.318 273.864 119.934C272.789 119.55 271.688 119.358 270.562 119.358H267.528V139.096Z" fill="black"/>
<path d="M69.9367 0C73.682 0 76.7188 3.03424 76.7189 6.77734V27.1113C71.5201 30.7258 60.987 38.0893 60.4426 38.6328V21.6885C60.4424 18.3197 57.7099 15.5889 54.3391 15.5889C50.9683 15.5889 48.2357 18.3197 48.2355 21.6885V76.5889C48.2356 79.5834 50.665 82.0107 53.6613 82.0107C56.6574 82.0105 59.086 79.5833 59.0861 76.5889V63.0332L52.3049 69.1328V46.7666H76.7189V90.8223C76.7188 94.5654 73.6821 97.5996 69.9367 97.5996H39.4191C35.6739 97.5995 32.638 94.5653 32.6379 90.8223V6.77734C32.6381 3.03429 35.6739 9.44068e-05 39.4191 0H69.9367ZM134.158 90.0918L141.67 97.5996H113.671L117.769 91.457L117.085 80.5371H104.11L103.427 91.457L106.842 97.5996H80.8908L87.0373 90.0918L100.013 0H121.183L134.158 90.0918ZM187.351 0C192.675 0 196.974 4.34708 196.911 9.66797L196.425 50.5059C196.38 54.2881 193.299 57.3311 189.514 57.3311L196.344 97.5996H178.588L171.759 57.3311H167.661V91.457L171.759 97.5996H146.49L150.588 91.457V6.14258L145.808 0H187.351ZM226.45 8.13281L233.91 26.4336L241.37 8.13281L240.693 0H266.463L259.003 8.13281L225.095 91.5L227.807 97.5996H200.68L207.462 91.5L225.095 48.7998L209.496 8.13281L200.68 0H227.807L226.45 8.13281ZM95.4611 85.2988L95.4582 85.2959V85.3027C95.3804 85.3942 95.2478 85.5539 95.0764 85.7627C94.2871 86.5978 92.693 88.3719 92.1066 89.6611C92.0686 89.7431 92.0346 89.8271 92.0041 89.9121C91.755 90.4877 91.9467 91.1175 92.3508 91.5615C92.4075 91.625 92.4711 91.6856 92.5383 91.7422C93.1061 92.2215 94.0368 92.4448 95.257 91.8359C95.2842 92.2391 95.1141 92.9506 93.6623 93.1768C93.6623 93.1768 93.2486 93.6035 93.6154 93.7832H97.3058C97.6739 93.6034 97.2599 93.1768 97.2599 93.1768C95.8075 92.9506 95.6374 92.2392 95.6652 91.8359C96.8864 92.4447 97.8162 92.2215 98.384 91.7422C98.4511 91.6851 98.5137 91.625 98.5715 91.5615C98.9758 91.1169 99.1675 90.4874 98.9182 89.9121L98.8146 89.6611C98.2283 88.372 96.6332 86.5977 95.8449 85.7627C95.6735 85.5539 95.5402 85.3942 95.4641 85.3027V85.2959C95.4633 85.2968 95.4619 85.2983 95.4611 85.2988ZM186.268 85.0928C185.931 85.0928 185.599 85.1713 185.298 85.3223C184.998 85.4732 184.736 85.6923 184.535 85.9619C184.334 86.2317 184.199 86.5447 184.141 86.876C184.082 87.2073 184.101 87.5477 184.197 87.8701C183.831 87.8548 183.466 87.933 183.138 88.0977C182.81 88.2624 182.529 88.5083 182.322 88.8115C182.116 89.1149 181.99 89.4664 181.956 89.832C181.923 90.1976 181.983 90.5656 182.131 90.9014C182.279 91.2371 182.511 91.5295 182.804 91.751C183.097 91.9724 183.441 92.1156 183.805 92.167C184.168 92.2183 184.539 92.1766 184.882 92.0449C185.225 91.9132 185.528 91.6965 185.764 91.415C185.489 92.039 185.162 92.639 184.787 93.209C184.644 93.425 184.799 93.7314 185.058 93.7314H187.478C187.735 93.7311 187.89 93.4249 187.747 93.209C187.373 92.6391 187.047 92.0389 186.772 91.415C186.974 91.6571 187.228 91.8517 187.514 91.9854C187.8 92.119 188.112 92.1884 188.428 92.1885C188.715 92.1884 189 92.131 189.265 92.0195C189.53 91.9081 189.77 91.7453 189.971 91.54C190.172 91.3347 190.33 91.0905 190.436 90.8232C190.541 90.5561 190.593 90.2706 190.587 89.9834C190.581 89.6961 190.517 89.413 190.401 89.1504C190.284 88.8878 190.116 88.6509 189.906 88.4541C189.697 88.2573 189.45 88.1042 189.181 88.0039C188.912 87.9037 188.625 87.8583 188.338 87.8701C188.434 87.5477 188.453 87.2072 188.395 86.876C188.336 86.5447 188.2 86.2317 187.999 85.9619C187.798 85.6922 187.537 85.4732 187.237 85.3223C186.936 85.1714 186.604 85.0928 186.268 85.0928ZM106.767 65.1807H115.047L110.907 25.2529L106.767 65.1807ZM42.1594 45.0586C41.4435 45.0587 40.7562 45.3916 40.3078 45.9141C39.8593 45.3916 39.1721 45.0586 38.4562 45.0586C37.189 45.0587 36.1937 46.05 36.1935 47.3213C36.1935 48.8726 37.592 50.1448 39.7111 52.0664L40.3078 52.6094L40.9045 52.0664C43.0236 50.1448 44.423 48.8726 44.423 47.3213C44.4229 46.0499 43.4266 45.0586 42.1594 45.0586ZM170.393 15.0156C168.884 15.0156 167.661 16.2374 167.661 17.7451V35.4912C167.662 36.9988 168.884 38.2207 170.393 38.2207H177.222C178.73 38.2207 179.953 36.9988 179.953 35.4912V17.7451C179.953 16.2374 178.73 15.0156 177.222 15.0156H170.393ZM218.09 4.97949C217.934 4.80257 217.629 4.80256 217.477 4.97949L214.181 8.68262C214.041 8.83898 214.041 9.07411 214.181 9.23047L217.473 12.9336C217.551 13.0199 217.662 13.0732 217.781 13.0732C217.901 13.0732 218.012 13.024 218.09 12.9336L221.382 9.23047C221.522 9.07411 221.522 8.83898 221.382 8.68262L218.09 4.97949Z" fill="black"/>
</svg>
